<svg width="16" height="16" viewBox="0 0 16 16" fill="none" xmlns="http://www.w3.org/2000/svg">
<path d="M14.6423 4.51624L13.6899 1.6591C13.6251 1.46454 13.4431 1.33332 13.238 1.33337H2.76183C2.55678 1.33332 2.37472 1.46454 2.30993 1.6591L1.35753 4.51624C1.34286 4.56072 1.33465 4.60706 1.33326 4.65385C1.33326 4.65862 1.33326 4.66194 1.33326 4.66671V5.14291C1.33499 5.88901 1.68781 6.59079 2.28563 7.03719C2.28563 7.04101 2.28563 7.04386 2.28563 7.04766V13.2381C2.28563 14.0271 2.92522 14.6667 3.7142 14.6667H12.2856C13.0746 14.6667 13.7142 14.0271 13.7142 13.2381V7.04766C13.7142 7.04383 13.7142 7.04099 13.7142 7.03719C14.312 6.59079 14.6649 5.88901 14.6666 5.14291V4.66671C14.6666 4.66194 14.6666 4.65862 14.6666 4.65385C14.6652 4.60703 14.657 4.56069 14.6423 4.51624ZM3.13325 2.28574H12.8947L13.5299 4.19051H2.46659L3.13325 2.28574ZM8.95231 13.7143H7.04754V9.9048H8.95231V13.7143ZM12.7618 13.2381C12.7618 13.5011 12.5486 13.7143 12.2856 13.7143H9.90468V9.42862C9.90468 9.16562 9.69148 8.95242 9.42848 8.95242H6.57134C6.30834 8.95242 6.09514 9.16562 6.09514 9.42862V13.7143H3.7142C3.4512 13.7143 3.238 13.5011 3.238 13.2381V7.47623C3.90628 7.61342 4.6012 7.45393 5.14277 7.03909C5.99283 7.66342 7.14986 7.66342 7.99991 7.03909C8.84997 7.66342 10.007 7.66342 10.8571 7.03909C11.3986 7.45396 12.0935 7.61342 12.7618 7.47623V13.2381ZM12.2856 6.57146C11.8738 6.5712 11.4828 6.39057 11.2156 6.07718C11.0426 5.87916 10.7417 5.8589 10.5437 6.03195C10.5276 6.04598 10.5125 6.06111 10.4985 6.07718C9.969 6.66814 9.06074 6.71794 8.46978 6.18848C8.43069 6.15343 8.39352 6.11629 8.35848 6.07718C8.17212 5.87916 7.86051 5.86967 7.66247 6.05605C7.65521 6.06289 7.64815 6.06992 7.64135 6.07718C7.11188 6.66814 6.2036 6.71794 5.61264 6.18848C5.57352 6.15343 5.53638 6.11629 5.50134 6.07718C5.31498 5.87916 5.00335 5.86967 4.80533 6.05605C4.79807 6.06289 4.79101 6.06992 4.78421 6.07718C4.51705 6.39057 4.12603 6.5712 3.7142 6.57146C2.92522 6.57146 2.28563 5.93186 2.28563 5.14289H13.7142C13.7142 5.93186 13.0746 6.57146 12.2856 6.57146Z" fill="#ABBBC2"/>
</svg>
