<svg width="25" height="25" viewBox="0 0 25 25" fill="none" xmlns="http://www.w3.org/2000/svg">
<path d="M11.7807 0.0166672C9.25281 0.245685 7.02945 1.07848 5.03267 2.54974C4.15465 3.19515 3.00048 4.36106 2.34905 5.25631C1.32942 6.65123 0.472642 8.64299 0.154007 10.371C-0.0513357 11.5231 -0.0513357 13.4801 0.154007 14.6321C0.472642 16.3602 1.32942 18.3519 2.34905 19.7469C3.99887 22.0162 6.57628 23.7998 9.26697 24.5424C11.4125 25.1322 13.9686 25.1531 16.2061 24.5979C18.5216 24.0288 20.6529 22.738 22.1257 21.0169C23.818 19.0251 24.7314 16.7072 24.9651 13.7855C25.043 12.8069 24.9863 11.7035 24.8376 10.947V10.947C24.8129 10.822 24.7033 10.7319 24.5758 10.7319H18.7481H14.8318C13.6574 10.7319 12.7075 11.6881 12.7153 12.8625V12.8625V12.8625C12.7271 14.0484 13.6882 15.0055 14.8741 15.0123L16.3336 15.0208C20.4617 15.0416 20.0581 14.9444 19.7395 15.8119C19.0739 17.6302 17.9197 18.8724 16.1424 19.6913C15.3494 20.0522 14.6555 20.2257 13.6429 20.3229C11.1788 20.5519 9.02623 19.8093 7.27727 18.1229C6.51255 17.3804 6.0523 16.7558 5.62037 15.8466C4.62198 13.7577 4.62198 11.2455 5.62037 9.15655C6.0523 8.24742 6.51255 7.62282 7.27727 6.88025C9.01207 5.20773 11.1929 4.44434 13.565 4.6803C14.004 4.72193 14.5563 4.80521 14.79 4.86767C15.4202 5.02729 16.6027 5.61718 17.2612 6.10992V6.10992C17.5964 6.36231 18.0648 6.33575 18.3693 6.04709L19.5695 4.90931L20.911 3.63219C21.1165 3.43658 21.1051 3.10543 20.8865 2.92449V2.92449C19.2438 1.52957 17.1054 0.537161 15.0024 0.183225C14.2164 0.0513668 12.425 -0.0388522 11.7807 0.0166672Z" fill="white"/>
</svg>
